<svg width="20" height="20" viewBox="0 0 20 20" fill="none" xmlns="http://www.w3.org/2000/svg">
<g id="ic:sharp-dinner-dining">
<rect width="20" height="20" rx="10" fill="#F49B33"/>
<path id="Vector" d="M4 14.6L5.2 15.8H14.8L16 14.6H4ZM4.6 14H14.782C14.956 12.044 13.414 10.4 11.494 10.4C10.084 10.4 8.884 11.288 8.41 12.53C8.164 12.392 7.888 12.302 7.6 12.248V8.6H10V7.25H15.4V6.35H10V5H4.6V5.9H5.2V6.35H4.6V7.25H5.2V7.7H4.6V8.6H5.2V13.034C4.936 13.31 4.732 13.634 4.6 14ZM7.6 7.7V7.25H8.8V7.7H7.6ZM8.8 6.35H7.6V5.9H8.8V6.35ZM6.1 5.9H6.7V6.35H6.1V5.9ZM6.1 7.25H6.7V7.7H6.1V7.25ZM6.7 8.6V12.236C6.49 12.272 6.292 12.338 6.1 12.416V8.6H6.7Z" fill="white"/>
</g>
</svg>
