<svg width="20" height="20" viewBox="0 0 20 20" fill="none" xmlns="http://www.w3.org/2000/svg">
<g id="ic:round-lunch-dining">
<rect width="20" height="20" rx="10" fill="#F49B33"/>
<path id="Vector" d="M4.822 11.768C5.296 11.594 5.52399 11.3 6.01599 11.3C6.72999 11.3 6.86799 11.9 8.01399 11.9C9.18398 11.9 9.26798 11.3 10.012 11.3C10.726 11.3 10.864 11.9 12.01 11.9C13.18 11.9 13.264 11.3 14.008 11.3C14.494 11.3 14.71 11.576 15.166 11.756C15.568 11.912 16 11.606 16 11.18C16 10.922 15.832 10.694 15.586 10.604C15.004 10.394 14.854 10.106 13.996 10.106C12.826 10.106 12.742 10.706 11.998 10.706C11.284 10.706 11.146 10.106 9.99998 10.106C8.82998 10.106 8.74598 10.706 8.00199 10.706C7.28799 10.706 7.14999 10.106 6.00399 10.106C5.074 10.106 4.828 10.484 4.396 10.64C4.162 10.724 4.006 10.952 4.006 11.204C4.006 11.618 4.426 11.912 4.822 11.768ZM4 14.6C4 15.26 4.54 15.8 5.2 15.8H14.8C15.46 15.8 16 15.26 16 14.6V14C16 13.34 15.46 12.8 14.8 12.8H5.2C4.54 12.8 4 13.34 4 14V14.6ZM16 8.59999C16.012 6.2 13.432 5 9.99998 5C6.57399 5 4 6.2 4 8.59999C4 8.92999 4.27 9.19999 4.6 9.19999H15.4C15.73 9.19999 16 8.92999 16 8.59999Z" fill="white"/>
</g>
</svg>
