<svg width="20" height="20" viewBox="0 0 20 20" fill="none" xmlns="http://www.w3.org/2000/svg">
<g id="bxs:drink">
<rect width="20" height="20" rx="10" fill="#F49B33"/>
<path id="Vector" d="M14.9066 5.86391C14.9624 5.78024 14.9945 5.68298 14.9993 5.58252C15.0042 5.48206 14.9817 5.38215 14.9343 5.29347C14.8868 5.20478 14.8162 5.13064 14.7299 5.07896C14.6436 5.02728 14.5449 4.99998 14.4443 5H5.55528C5.45479 5.00005 5.35619 5.02736 5.26999 5.07902C5.18379 5.13067 5.11321 5.20474 5.06578 5.29334C5.01835 5.38193 4.99583 5.48173 5.00063 5.58211C5.00544 5.68249 5.03737 5.77969 5.09305 5.86335L9.44425 12.3907V14.4446H7.77755V15.5558H12.2221V14.4446H10.5554V12.3907L14.9066 5.86391ZM13.4066 6.11113L12.2954 7.77783H7.70421L6.59308 6.11113H13.4066Z" fill="white"/>
</g>
</svg>
